<svg xmlns="http://www.w3.org/2000/svg" xmlns:xlink="http://www.w3.org/1999/xlink" version="1.1" id="layer" x="0px" y="0px" style="enable-background:new 0 0 652 652;" xml:space="preserve" viewBox="20.2 231.9 600 178.8">
<style type="text/css">
	.st0-white{fill:rgba(244, 244, 244);}
	.st0{fill:#1A1A1A;}
	.st1{fill:#676767;}
	.st2{fill:#079247;}
	.st3{fill:#D9E028;}
	.st4{fill:#EA3981;}
	.st5{fill:#3DB54A;}
	.st6{fill:#F27BAA;}
	.st7{fill:#2AAAE2;}
	.st8{fill:#ED237A;}
	.st9{fill:#9D1F60;}
	.st10{fill:#FECF0A;}
	.st11{fill:#64CDF2;}
	.st12{fill:#E571A8;}
	.st13{fill:#8DC641;}
	.st14{fill:#F79421;}
	.st15{fill:#932A8E;}
</style>
<g>
	<g>
		<path class="st0-white" d="M239.6,291.2h15.7v60.2h-15.7V291.2L239.6,291.2z M279.1,321.3v30.1h-14.8v-60.7l4.1,3.4l32.9,27.2v-30.2    h14.6l-0.1,60.7L279.1,321.3L279.1,321.3z M393.5,289.6c-15.2,0-22,8.7-28.6,24.2l0,0.1c-0.6,1.3-1.3,2.7-1.9,4.1l-2,4.5    c-3.6,8.3-5.8,13.3-12.1,13.3c-5.2,0-9-4.8-9-12.3c0-9,4.7-14,11-17.9l-8.6-14.8C332,296,324,306.9,324,323.8    c0,17.3,9,30.1,25.3,30.1c15.2,0,22-8.7,28.6-24.2l0.4-1c0.5-1,1-2.1,1.4-3.2l2-4.5c3.6-8.3,5.8-13.3,12.1-13.3    c5.2,0,9,4.8,9,12.3c0,9-4.7,14-11,17.9l8.6,14.8c10.5-5.3,18.6-16.2,18.6-33.1C418.8,302.5,409.9,289.6,393.5,289.6L393.5,289.6z     M427.4,291.2h15.7v60.2h-15.7V291.2L427.4,291.2z M452.7,291.2h21.7c17.8,0,31.4,11.5,31.4,30.1c0,18.3-13.5,30.1-31.4,30.1    h-21.7V291.2L452.7,291.2z M473.5,337.8c11.2,0,16.2-6.3,16.2-16.5c0-10-5-16.5-16.2-16.5h-5.2v33L473.5,337.8L473.5,337.8z     M514.7,291.2h42.8v13.5h-27.1v10.2h26.4v12.8h-26.4v10.2h28.3v13.5h-44L514.7,291.2L514.7,291.2z M567.1,291.2h21.7    c17.8,0,31.4,11.5,31.4,30.1c0,18.3-13.5,30.1-31.4,30.1h-21.7V291.2L567.1,291.2z M588,337.8c11.2,0,16.2-6.3,16.2-16.5    c0-10-5-16.5-16.2-16.5h-5.2v33L588,337.8L588,337.8z"/>
	</g>
	<circle class="st0-white" cx="109.6" cy="321.3" r="16.5"/>
	<path class="st1" d="M109.6,346.6c-13.9,0-25.3-11.3-25.3-25.3c0-13.9,11.3-25.3,25.3-25.3c13.9,0,25.3,11.3,25.3,25.3   C134.9,335.3,123.6,346.6,109.6,346.6L109.6,346.6z M109.6,300.1c-11.7,0-21.2,9.5-21.2,21.2c0,11.7,9.5,21.2,21.2,21.2   c11.7,0,21.2-9.5,21.2-21.2C130.8,309.6,121.3,300.1,109.6,300.1z"/>
	<circle class="st2" cx="109.6" cy="271.8" r="11.1"/>
	<circle class="st3" cx="109.6" cy="243" r="11.1"/>
	<circle class="st4" cx="109.6" cy="370.8" r="11.1"/>
	<circle class="st5" cx="84.8" cy="278.4" r="5.6"/>
	<circle class="st6" cx="134.3" cy="364.1" r="5.6"/>
	<circle class="st7" cx="152.4" cy="296.5" r="11.1"/>
	<circle class="st8" cx="66.7" cy="346" r="11.1"/>
	<circle class="st9" cx="159" cy="321.3" r="5.6"/>
	<circle class="st9" cx="60.1" cy="321.3" r="5.6"/>
	<circle class="st5" cx="134.3" cy="278.4" r="5.6"/>
	<circle class="st6" cx="84.8" cy="364.1" r="5.6"/>
	<circle class="st8" cx="152.4" cy="346" r="11.1"/>
	<circle class="st7" cx="66.7" cy="296.5" r="11.1"/>
	<circle class="st10" cx="109.6" cy="399.6" r="11.1"/>
	<circle class="st11" cx="41.8" cy="282.1" r="11.1"/>
	<circle class="st12" cx="177.3" cy="360.4" r="11.1"/>
	<circle class="st11" cx="177.3" cy="282.1" r="11.1"/>
	<circle class="st12" cx="41.8" cy="360.4" r="11.1"/>
	<circle class="st13" cx="70.4" cy="253.5" r="11.1"/>
	<circle class="st14" cx="148.7" cy="389.1" r="11.1"/>
	<circle class="st13" cx="148.7" cy="253.5" r="11.1"/>
	<circle class="st14" cx="70.4" cy="389.1" r="11.1"/>
	<circle class="st15" cx="187.8" cy="321.3" r="11.1"/>
	<circle class="st15" cx="31.3" cy="321.3" r="11.1"/>
</g>
</svg>